<!-- Generated by IcoMoon.io -->
<svg version="1.1" xmlns="http://www.w3.org/2000/svg" width="32" height="32" viewBox="0 0 32 32">
<title>instagramm</title>
<path fill="#3f729b" d="M16 0.245c8.7 0 15.754 7.054 15.754 15.755 0 8.699-7.054 15.753-15.754 15.753s-15.754-7.054-15.754-15.753c0-8.702 7.054-15.755 15.754-15.755z"></path>
<path fill="#fff" d="M21.438 7.135h-10.875c-1.892 0.002-3.424 1.535-3.426 3.426v10.877c0.002 1.891 1.535 3.424 3.426 3.425h10.875c1.891-0.001 3.424-1.534 3.426-3.425v-10.876c-0.002-1.892-1.535-3.424-3.426-3.426h-0zM22.517 9.118l0.388-0.001v2.943l-2.964 0.009-0.010-2.942 2.586-0.009zM16 13.034c2.458 0 2.966 2.308 2.966 2.966-0.003 1.637-1.33 2.962-2.966 2.965h-0c-1.637-0.002-2.963-1.328-2.966-2.965v-0c0-0.658 0.508-2.966 2.966-2.966zM22.922 21.222c0 0.937-0.763 1.698-1.7 1.698h-10.475c-0.938-0.001-1.698-0.761-1.7-1.698v-7.196h2.462c-0.228 0.562-0.357 1.329-0.357 1.974 0.004 2.676 2.172 4.844 4.848 4.847h0c2.676-0.003 4.844-2.171 4.847-4.846v-0c0-0.645-0.129-1.412-0.357-1.974h2.432v7.196z"></path>
</svg>
