<!-- Generated by IcoMoon.io -->
<svg version="1.1" xmlns="http://www.w3.org/2000/svg" width="32" height="32" viewBox="0 0 32 32">
<title>linkedin</title>
<path fill="#0e76a8" d="M16 0.245c8.7 0 15.754 7.054 15.754 15.755 0 8.699-7.054 15.753-15.754 15.753s-15.754-7.054-15.754-15.753c0-8.702 7.054-15.755 15.754-15.755z"></path>
<path fill="#fff" d="M20.933 21.892v-5.361c0-1.1-0.318-2.201-1.611-2.201-1.295 0-2.327 1.1-2.327 2.226v5.335h-2.961v-9.865h2.961v1.369c0.908-1.154 2.19-1.678 3.621-1.678 1.433 0 3.269 0.715 3.269 4.592v5.582h-2.951zM9.122 12.058h2.951v9.834h-2.951v-9.834zM10.585 11.076c-0.816 0-1.477-0.661-1.477-1.477s0.661-1.477 1.477-1.477v0c0.816 0 1.477 0.661 1.477 1.477s-0.661 1.477-1.477 1.477v0z"></path>
</svg>
