<!-- Generated by IcoMoon.io -->
<svg version="1.1" xmlns="http://www.w3.org/2000/svg" width="32" height="32" viewBox="0 0 32 32">
<title>twitter</title>
<path fill="#26a6d1" d="M16 0.245c8.7 0 15.754 7.055 15.754 15.755 0 8.699-7.054 15.753-15.754 15.753s-15.754-7.054-15.754-15.753c0-8.7 7.054-15.755 15.754-15.755z"></path>
<path fill="#fff" d="M25.849 10.858c-0.643 0.285-1.388 0.492-2.169 0.585l-0.037 0.004c0.789-0.46 1.386-1.177 1.681-2.035l0.008-0.026c-0.703 0.412-1.52 0.725-2.389 0.895l-0.050 0.008c-0.707-0.726-1.695-1.177-2.787-1.177-0.005 0-0.010 0-0.015 0h0.001c-2.121 0-3.84 1.669-3.84 3.727 0 0.292 0.034 0.576 0.1 0.849-3.179-0.149-5.986-1.623-7.901-3.878l-0.013-0.016c-0.326 0.535-0.519 1.181-0.519 1.873 0 0 0 0 0 0v0c0 1.294 0.678 2.434 1.708 3.102-0.64-0.020-1.236-0.19-1.76-0.476l0.021 0.010v0.047c0 1.804 1.323 3.311 3.079 3.653-0.303 0.083-0.651 0.131-1.010 0.131-0.256 0-0.507-0.024-0.749-0.071l0.025 0.004c0.489 1.481 1.906 2.558 3.586 2.587-1.302 0.996-2.954 1.596-4.746 1.596-0.008 0-0.016 0-0.024-0h0.001c-0.31 0-0.615-0.018-0.916-0.053 1.666 1.051 3.693 1.675 5.866 1.675 0.007 0 0.013 0 0.020-0h-0.001c7.061 0 10.922-5.679 10.922-10.602 0-0.161-0.002-0.324-0.010-0.482 0.753-0.532 1.388-1.171 1.899-1.905l0.017-0.025z"></path>
</svg>
