<!-- Generated by IcoMoon.io -->
<svg version="1.1" xmlns="http://www.w3.org/2000/svg" width="32" height="32" viewBox="0 0 32 32">
<title>vimeo</title>
<path fill="#86c9ef" d="M16 0.245c8.7 0 15.754 7.055 15.754 15.755 0 8.699-7.054 15.753-15.754 15.753s-15.754-7.054-15.754-15.753c0-8.7 7.054-15.755 15.754-15.755z"></path>
<path fill="#fff" d="M7.138 13.045c1.473-1.177 3.568-3.758 5.201-3.758 1.632 0 2.032 1.926 2.255 3.675 0.224 1.748 0.866 5.57 1.728 5.57 0.865 0 2.833-3.381 2.721-4.688-0.112-1.306-1.536-1.111-2.32-0.735 0.72-2.615 2.384-4.002 4.512-4.002s2.641 1.503 2.641 3.349c0 2.81-5.697 11.419-9.137 11.419-2.129 0-2.656-3.136-3.088-4.689-0.433-1.551-1.281-5.62-2.273-5.881-0.385-0.065-1.472 0.8-1.472 0.8l-0.768-1.061z"></path>
</svg>
